<svg xmlns="http://www.w3.org/2000/svg" width="120" height="120" viewBox="0 0 120 120">
  <path id="패스_85638" data-name="패스 85638" d="M120,60c0,5.113-6.35,9.324-7.61,14.04-1.3,4.88,2.051,11.694-.421,15.966-2.507,4.334-10.11,4.819-13.627,8.336s-4,11.119-8.336,13.627c-4.272,2.472-11.086-.884-15.966.42C69.324,113.65,65.113,120,60,120s-9.324-6.35-14.04-7.61c-4.88-1.3-11.694,2.051-15.966-.421-4.334-2.507-4.819-10.11-8.336-13.627s-11.119-4-13.627-8.336c-2.472-4.272.884-11.086-.42-15.966C6.35,69.324,0,65.113,0,60s6.35-9.324,7.61-14.04c1.3-4.88-2.051-11.694.421-15.966,2.507-4.334,10.11-4.819,13.627-8.336s4-11.119,8.336-13.627c4.272-2.472,11.086.884,15.966-.421C50.676,6.35,54.887,0,60,0s9.324,6.35,14.04,7.61c4.88,1.3,11.694-2.051,15.966.421,4.334,2.507,4.819,10.11,8.336,13.627s11.119,4,13.627,8.336c2.472,4.272-.884,11.086.421,15.966C113.65,50.676,120,54.887,120,60" fill="#ff3a4a"/>
</svg>
